<svg xmlns="http://www.w3.org/2000/svg" xmlns:xlink="http://www.w3.org/1999/xlink" version="1.1" x="0px" y="0px" viewBox="0 0 100 110" enable-background="new 0 0 100 100" xml:space="preserve"><path d="M62.227,23.523c-2.129-8.428-6.157-13.371-10.556-16.01c0,0,0,3.871,0,7.564c0,0-1.935-7.037-8.444-9.852v16.01  c-8.62,5.98-10.379,9.676-11.787,13.547L12.792,45.689l3.694,4.398l14.931,3.788l-3.057,2.649l2.236,2.184h7.177l6.333-3.871  c0,0-2.814,25.686,13.194,39.936c22.166-10.381,29.907-42.75,29.907-42.75L62.227,23.523z M64.012,71.094  c0,0,0.859,4.283,4.219,8.525c-0.954,1.166-1.963,2.297-3.027,3.371c-1.926-2.416-9.03-11.336-9.103-11.48  c0,0,0.702,7.297,5.83,14.457c-1.181,0.959-2.418,1.846-3.717,2.643c-11.155-12.691-9.159-33.02-9.137-33.227l1.108-10.121  l-7.294,4.459l-11.388-0.87l-6.426-1.943l-0.635-2.239l9.521-5.57l1.558-0.91l0.617-1.695c1.017-2.797,2.068-5.688,9.938-11.148  l2.149-1.492c2.453-1.631,6.484-1.318,9.447,2.062l0.793,0.904l23.195,26.463c-1.403,4.621-5.046,15.016-11.625,24.002  C67.936,75.135,64.062,71.172,64.012,71.094z"/><polygon points="38.878,38.104 45.835,38.104 44.25,34.053 "/></svg>